<svg id="Layer_1" data-name="Layer 1" xmlns="http://www.w3.org/2000/svg" viewBox="0 0 388.24 326.78"><title>cartIcon</title><path d="M152.1,388.39a43.77,43.77,0,1,1,43.78-43.77A43.82,43.82,0,0,1,152.1,388.39Z" transform="translate(-21.16 -61.61)"/><path d="M348.6,388.39a43.77,43.77,0,1,1,43.77-43.77A43.82,43.82,0,0,1,348.6,388.39Z" transform="translate(-21.16 -61.61)"/><path d="M348.6,351.37H161.85a16.49,16.49,0,0,1-15.71-21.52l25.08-61.63a6.75,6.75,0,1,1,12.5,5.1l-24.9,61.14a3.12,3.12,0,0,0,.61,2.2,3,3,0,0,0,2.42,1.22H348.6a6.75,6.75,0,1,1,0,13.49Z" transform="translate(-21.16 -61.61)"/><path d="M406.21,106a16.53,16.53,0,0,0-13.3-6.74l-281.27.1L98.42,69.1a6.74,6.74,0,0,0-6.18-4H29.73a6.75,6.75,0,0,0,0,13.49H87.82l82.49,189a16.45,16.45,0,0,0,15.14,10H347.07A16.44,16.44,0,0,0,362.8,266l45.84-145.25A16.51,16.51,0,0,0,406.21,106ZM333.29,238.46h-138a6.75,6.75,0,0,1,0-13.5h138a6.75,6.75,0,0,1,0,13.5Zm11.78-42.62H183.52a6.75,6.75,0,0,1,0-13.49H345.07a6.75,6.75,0,0,1,0,13.49Zm9.66-42.62H173.86a6.75,6.75,0,1,1,0-13.49H354.73a6.75,6.75,0,0,1,0,13.49Z" transform="translate(-21.16 -61.61)"/><path d="M42.44,72.25A10.64,10.64,0,1,1,31.8,61.61,10.64,10.64,0,0,1,42.44,72.25Z" transform="translate(-21.16 -61.61)"/></svg>